PathFileType	3	(X/Y/Z)	D:\minhoCalibration\240510\subject3_KPNP\preferred\preferred01.trc
DataRate	CameraRate	NumFrames	NumMarkers	Units	OrigDataRate	OrigDataStartFrame	OrigNumFrames
200.0	200.0	21	10	mm	200.0	265	136	
Frame#	Time	Left_Ankle_Outer1			Left_Ankle_Inner1			Left_Knee_Outer1			Left_Knee_Inner1			Left_Wrist1			Right_Wrist1			Right_Knee_Inner1			Right_Knee_Outer1			Right_Ankle_Inner1			Right_Ankle_Outer1			
		X1	Y1	Z1	X2	Y2	Z2	X3	Y3	Z3	X4	Y4	Z4	X5	Y5	Z5	X6	Y6	Z6	X7	Y7	Z7	X8	Y8	Z8	X9	Y9	Z9	X10	Y10	Z10	
265	1.315	-300.05365	134.50491	-555.5481	-352.30423	152.03082	-535.95868	-139.91246	531.9035	-455.20718	-213.97371	544.69342	-385.4104	-125.50063	920.6767	-664.37726	-374.11124	1098.8108	-435.29678	-359.76892	860.03687	-60.229843	-412.3912	977.36554	-66.362198	-710.33539	702.44836	-236.05966	-776.07599	779.5777	-195.93556
266	1.32	-301.07516	134.18033	-555.39893	-352.69003	152.07448	-535.40936	-139.13121	531.53101	-456.1152	-212.84065	544.32794	-385.23859	-127.17587	920.30316	-668.09021	-370.75116	1102.5475	-435.61136	-345.64426	877.09204	-55.461418	-394.09448	993.37006	-65.321976	-712.41919	716.48492	-196.26373	-773.20917	797.92584	-157.55771
267	1.325	-301.16635	134.61023	-555.31976	-353.10333	152.02115	-534.88397	-138.43593	531.02716	-456.88974	-211.08238	543.71393	-385.99121	-129.44917	919.46405	-671.35071	-366.98883	1106.3636	-435.6156	-333.20764	893.15674	-51.682274	-376.82367	1008.7704	-64.987801	-713.38995	732.04974	-153.87927	-768.92395	817.26959	-116.79523
268	1.33	-301.79736	134.19524	-555.31207	-353.36295	151.73524	-534.44159	-138.07103	530.41382	-457.47104	-209.82079	543.48712	-384.82452	-131.47725	918.54999	-674.24573	-363.88574	1109.5061	-436.46094	-320.45181	908.21204	-49.088577	-360.54373	1023.4495	-65.820236	-711.06226	748.69489	-111.76423	-761.91876	837.03369	-76.465446
269	1.335	-302.65967	133.44107	-555.1192	-353.64636	151.4624	-534.50806	-137.76389	529.77393	-457.8515	-208.88889	542.95715	-384.41949	-133.86179	917.35858	-676.66302	-360.60205	1112.7113	-437.37604	-308.54346	922.68109	-47.836349	-344.95465	1037.0809	-68.098167	-705.9281	766.44299	-68.786751	-752.46588	857.37244	-35.496895
270	1.34	-302.55988	133.21808	-555.50958	-353.90298	151.11032	-534.6449	-137.6144	529.04547	-458.14566	-208.84439	541.97485	-385.82498	-136.31725	915.42084	-678.65417	-357.29648	1115.7118	-438.28552	-297.50763	936.12946	-47.61932	-330.91006	1049.2317	-71.465935	-697.93842	785.24066	-25.028265	-740.27039	878.44971	6.1360912
271	1.345	-302.83188	132.60025	-555.80682	-354.07831	150.54659	-534.84906	-137.65488	528.21753	-458.13528	-207.11206	542.19482	-382.96524	-138.62599	913.46851	-680.31909	-354.10358	1118.3851	-439.45819	-287.71777	948.4975	-48.300377	-319.20978	1059.5854	-75.759956	-687.13159	805.32953	19.619932	-725.08185	900.74048	48.268612
272	1.35	-303.04388	132.07828	-556.01489	-354.24475	149.84058	-535.25085	-137.70389	527.42975	-457.97141	-206.81314	541.30597	-382.76364	-141.09686	911.15112	-681.52167	-351.18823	1120.7561	-441.4729	-279.12927	959.77704	-50.004215	-307.41898	1068.5729	-81.385254	-672.24762	827.30762	65.112335	-706.47601	924.29767	91.470016
273	1.355	-303.21292	131.54616	-556.37146	-354.48196	149.5116	-535.87842	-137.89888	526.52905	-457.56244	-207.24461	540.5885	-382.36398	-143.30244	908.63977	-682.42938	-348.31671	1122.8168	-443.22476	-272.27847	969.3858	-52.137623	-298.55798	1075.2928	-87.533119	-653.77802	850.07983	109.27598	-683.50806	948.70343	132.51329
274	1.36	-303.47549	130.93672	-556.68408	-354.69577	149.02975	-536.28149	-138.20262	525.66339	-456.99469	-207.50159	539.95233	-381.91003	-145.51289	905.95593	-682.97919	-346.05511	1124.5388	-445.86163	-267.15347	977.49463	-54.919693	-293.13611	1080.4462	-93.250465	-630.44867	873.55762	152.80672	-656.44849	973.84497	172.47495
275	1.365	-303.73907	130.43048	-557.00623	-355.07608	148.65202	-536.67792	-138.629	524.80774	-456.2962	-207.97517	539.45892	-380.91785	-147.42755	903.28082	-683.30078	-343.54303	1126.2	-448.76147	-263.6705	984.02661	-58.209751	-289.14697	1084.2972	-99.228508	-602.81409	898.44342	194.18976	-625.20465	1000.0674	210.71144
276	1.37	-303.69733	130.33464	-557.24426	-355.45828	148.32652	-537.11322	-138.95694	523.88074	-455.5809	-209.18097	538.45624	-380.90991	-149.19875	900.5896	-683.11865	-341.60278	1127.3612	-451.85455	-261.74286	988.93573	-61.723049	-287.39853	1086.6246	-104.57294	-569.76343	923.724	233.05695	-589.25714	1026.7391	244.12032
277	1.375	-303.98758	129.98186	-557.57617	-355.71274	147.99532	-537.5387	-139.33859	523.05151	-454.78705	-209.79874	537.74396	-381.32584	-151.04112	898.12244	-682.35248	-340.13818	1128.2313	-455.17175	-261.25845	992.29889	-64.957176	-287.18765	1088.0732	-108.93503	-532.9071	948.81055	267.48758	-549.74896	1052.9631	273.55606
278	1.38	-304.82721	129.57916	-557.1651	-356.01157	147.81096	-537.81061	-139.63678	522.32953	-453.88489	-210.34352	537.70093	-379.7829	-152.54799	896.12738	-680.96643	-339.22665	1128.8055	-458.61368	-261.99899	994.33331	-67.553787	-287.71384	1088.1674	-112.50626	-492.99896	973.87915	296.4137	-507.05688	1078.9363	297.04715
279	1.385	-304.65631	129.61708	-557.69604	-356.38986	147.62131	-538.05853	-140.10693	521.95746	-452.83951	-211.28932	536.89215	-379.48444	-153.94884	894.38776	-678.9743	-339.24551	1129.626	-461.43649	-262.96957	996.02448	-69.716293	-289.73984	1087.7072	-114.75123	-446.2916	997.99432	315.85278	-462.18311	1102.0439	313.08469
280	1.39	-304.94302	129.55565	-557.80127	-356.74591	147.48244	-538.09088	-140.47525	521.4895	-451.92093	-211.90428	536.21545	-378.69037	-154.96631	893.34613	-676.19702	-340.3143	1130.8036	-463.10172	-265.43265	996.80225	-71.161125	-292.17395	1086.7229	-116.5471	-394.25497	1017.803	321.17047	-417.97122	1123.4053	322.87006
281	1.395	-305.2742	129.40843	-557.90222	-356.89224	147.12848	-537.90637	-140.87518	521.245	-451.05658	-212.43236	535.47705	-378.57507	-156.11859	892.8208	-672.48553	-341.69992	1132.6228	-464.43335	-267.00449	997.61536	-72.919998	-296.52316	1085.1619	-117.84785	-357.44611	1034.5812	336.52716	-368.1825	1140.6461	324.50607
282	1.4	-305.94769	128.97672	-557.93066	-357.15527	147.0986	-537.82758	-141.3857	521.08832	-450.11105	-213.18056	535.35645	-375.90933	-156.7999	892.98608	-668.23651	-343.95706	1134.1603	-465.3674	-267.59686	998.02802	-74.761612	-301.72665	1085.3108	-118.11295	-333.59619	1054.3419	345.89758	-336.25894	1159.1321	315.63083
283	1.405	-305.85791	129.61778	-557.89532	-357.45953	147.05765	-537.8515	-141.69206	521.15546	-449.14313	-213.53981	534.742	-375.38937	-157.27359	893.60815	-663.40143	-345.71143	1136.0004	-466.15652	-266.70096	997.46204	-76.585831	-306.99149	1089.8972	-119.49068	-321.31049	1058.8662	334.87424	-323.23087	1167.1564	307.92209
284	1.41	-306.07645	129.60582	-557.96423	-357.59961	146.97108	-537.88745	-142.26927	521.18628	-447.70462	-213.95004	533.90387	-374.4324	-157.49025	894.46039	-658.21423	-347.87601	1135.8282	-465.46909	-264.02368	996.76855	-77.793289	-311.19791	1094.2189	-120.90381	-319.27664	1064.109	335.19635	-320.36792	1170.3585	308.6254
285	1.415	-305.88248	129.58925	-558.01465	-357.61877	146.88097	-537.89978	-142.75658	521.25183	-446.04251	-214.50423	534.12231	-371.30869	-157.50555	895.32458	-652.74969	-351.36252	1134.9867	-464.15451	-259.61362	998.48456	-78.66671	-312.96384	1097.6664	-121.37293	-318.4451	1062.038	337.54617	-325.09479	1167.5232	314.48743
